<svg width="241" height="60" viewBox="0 0 241 60" fill="none" xmlns="http://www.w3.org/2000/svg">
<path d="M204.288 26.7096V28.8039H214.155V26.7096H204.288Z" fill="#181818"/>
<path fill-rule="evenodd" clip-rule="evenodd" d="M0.122147 29.8495C0.0862432 29.8776 0.0465211 29.9087 0 29.9398C0.0465203 29.971 0.0862419 30.0021 0.122146 30.0302C0.168132 30.0663 0.207855 30.0974 0.247578 30.1173C0.918691 30.5777 1.59046 31.0387 2.2628 31.5001C6.51566 34.4187 10.7913 37.3529 15.0669 40.2342C15.2438 40.3762 15.3499 40.3407 15.5267 40.2342C17.9848 38.548 20.4518 36.8707 22.9188 35.1935C25.3857 33.5162 27.8526 31.839 30.3107 30.1528C30.3504 30.1329 30.3901 30.1018 30.4361 30.0657C30.472 30.0376 30.5117 30.0065 30.5583 29.9753C30.5117 29.9442 30.472 29.9131 30.4361 29.885C30.3901 29.8489 30.3504 29.8178 30.3107 29.7979C25.3591 26.4611 20.4075 23.1243 15.456 19.752C15.2791 19.6455 15.173 19.6455 14.9962 19.752L0.247578 29.7624C0.207856 29.7823 0.168133 29.8134 0.122147 29.8495ZM17.9028 36.1907C17.9099 36.1791 17.9182 36.1655 17.9318 36.152C17.8964 36.081 17.8257 36.01 17.7549 35.939C17.1537 35.797 16.9768 35.584 16.9768 34.945V30.3303H19.9478C20.1953 31.8567 21.0442 32.9572 22.4589 33.6316C22.4124 33.6627 22.3727 33.6939 22.3368 33.722C22.2908 33.758 22.251 33.7892 22.2113 33.8091L15.5267 38.3883C15.3145 38.5303 15.2084 38.5303 14.9962 38.3883C12.8387 36.9329 10.6812 35.442 8.52377 33.9511C8.48841 33.9333 8.45304 33.9067 8.41767 33.8801C8.3823 33.8535 8.34693 33.8269 8.31156 33.8091C9.97773 32.3098 10.0806 31.9112 10.3069 31.0345C10.3592 30.8319 10.4181 30.6036 10.5044 30.3303H13.4753V34.9805C13.4753 35.6195 13.1924 35.939 12.485 36.01C12.5256 36.0506 12.5558 36.0913 12.5816 36.1261C12.6233 36.1823 12.6535 36.223 12.6972 36.223H17.861C17.8829 36.223 17.8912 36.2094 17.9028 36.1907ZM22.1052 26.1061C22.176 26.1416 22.2821 26.2126 22.3882 26.2836C21.1149 27.0645 20.0892 27.9875 20.0185 29.5139H16.9768V24.8637C16.9768 24.3667 17.2244 24.0472 17.6842 23.9407C17.8964 23.9052 17.9671 23.8342 17.8964 23.6212H12.5911V23.8697C12.6088 23.8697 12.6177 23.8786 12.6265 23.8875C12.6353 23.8964 12.6442 23.9052 12.6619 23.9052C13.3692 24.0472 13.5814 24.2957 13.5814 25.0057C13.5814 25.7156 13.5726 26.4167 13.5638 27.1178C13.5549 27.8189 13.5461 28.5199 13.5461 29.2299V29.5849H10.752C10.6105 29.5849 10.5044 29.5849 10.469 29.4074C10.2568 28.094 9.62019 27.0645 8.45304 26.3901C8.3786 26.3652 8.32157 26.3228 8.25752 26.2752C8.23027 26.255 8.20175 26.2338 8.17009 26.2126C8.62988 25.8931 9.0543 25.6091 9.47872 25.3251L14.9962 21.5979C15.173 21.4914 15.3145 21.4559 15.5267 21.5979C17.7195 23.0887 19.9125 24.5797 22.1052 26.1061ZM6.75513 32.7616C5.37426 31.8301 4.00713 30.9078 2.61726 29.9398C4.31492 28.8394 6.01264 27.739 7.67493 26.6386C8.77135 27.7035 8.84209 32.2117 7.78104 33.4541C7.43786 33.2222 7.09608 32.9916 6.75513 32.7616ZM22.586 26.9863C22.6504 26.8249 22.7153 26.6622 22.7772 26.4966C23.8418 27.2018 24.8679 27.8941 25.8865 28.5813C26.5599 29.0357 27.23 29.4877 27.9056 29.9398C26.9452 30.5824 26.0075 31.225 25.0604 31.8741C24.3333 32.3723 23.6006 32.8744 22.848 33.3831C22.8142 33.2927 22.7804 33.2032 22.7469 33.1144C22.57 32.6456 22.401 32.1979 22.2821 31.7502C22.0345 30.5788 21.9284 29.3719 22.176 28.165C22.2762 27.7627 22.4296 27.3782 22.586 26.9863Z" fill="#181818"/>
<path d="M82.0898 21.2786C82.0191 21.7045 81.9483 22.095 81.8776 22.4855H84.6717C84.5302 23.018 84.3887 23.5504 84.2826 24.0474C84.2287 24.2277 84.2022 24.3165 84.1428 24.3601C84.0853 24.4024 83.9969 24.4024 83.8228 24.4024H81.7715C81.6654 24.4024 81.5946 24.4379 81.5593 24.5444C81.4886 24.7749 81.4267 25.0143 81.3649 25.2538C81.303 25.4934 81.241 25.7335 81.1702 25.9643V26.1063H83.6106C83.4927 26.5559 83.3749 26.974 83.257 27.3921C83.198 27.6011 83.1391 27.8102 83.0801 28.0231H80.8519C80.7458 28.0231 80.6751 28.0586 80.6751 28.1651C80.5868 28.502 80.4896 28.8476 80.3925 29.1933L80.3921 29.1946C80.2949 29.5407 80.1976 29.8868 80.1092 30.224C80.0034 30.6133 79.8976 31.0113 79.7919 31.4094L79.7909 31.4132C79.6848 31.8125 79.5786 32.2119 79.4725 32.6024C79.3488 33.0816 79.2161 33.5519 79.0835 34.0223C78.9509 34.4926 78.8182 34.963 78.6944 35.4422C78.5706 35.8681 78.4557 36.2852 78.3408 36.7023C78.2258 37.1194 78.1109 37.5365 77.9871 37.9625C77.9517 38.069 77.881 38.069 77.7749 38.069H73.4953C74.0612 35.7617 74.6182 33.4543 75.1753 31.1469C75.7323 28.8396 76.2894 26.5322 76.8553 24.2249H72.5403C72.478 24.4753 72.4034 24.7257 72.3309 24.969C72.2801 25.1394 72.2304 25.3064 72.1867 25.4673C72.0935 25.779 72.0072 26.0907 71.9216 26.3994C71.8124 26.7938 71.7044 27.1833 71.5854 27.5617C71.4439 28.0764 71.3025 28.5822 71.161 29.0881C71.0195 29.5939 70.878 30.0998 70.7366 30.6145C70.6481 30.9162 70.5597 31.2268 70.4713 31.5374C70.3829 31.848 70.2945 32.1586 70.206 32.4604C70.206 32.4959 70.1353 32.5314 70.0999 32.5314H62.9909C63.0086 32.4604 63.0174 32.3894 63.0263 32.3184C63.0351 32.2474 63.0439 32.1764 63.0616 32.1054C63.3799 30.8985 63.6983 29.6915 64.0166 28.4491C64.158 27.8989 64.3084 27.3487 64.4587 26.7985C64.609 26.2483 64.7593 25.698 64.9008 25.1478C65.0246 24.6509 65.1572 24.1539 65.2898 23.6569C65.4225 23.1599 65.5551 22.663 65.6789 22.166C65.7496 21.8465 65.8204 21.5625 65.9265 21.2431C65.9265 21.2076 65.9972 21.1721 66.0679 21.1366H81.8422C81.913 21.2786 81.9837 21.2786 82.0898 21.2786Z" fill="#181818"/>
<path d="M143.949 31.4664C143.312 33.5963 142.676 35.7262 142.039 37.8915H134.895L139.139 21.2786H146.283C146.23 21.4738 146.186 21.669 146.142 21.8642C146.098 22.0594 146.053 22.2547 146 22.45C145.859 23.0352 145.718 23.6292 145.576 24.2233L145.576 24.2248C145.435 24.8194 145.293 25.414 145.152 25.9998L145.151 26.002C145.045 26.4272 144.939 26.8525 144.833 27.3132C144.798 27.4197 144.798 27.4907 144.904 27.5617C145.187 27.7569 145.47 27.961 145.753 28.1651C146.036 28.3692 146.319 28.5734 146.602 28.7686L149.467 30.792C149.926 31.129 150.394 31.4571 150.863 31.7852L150.864 31.7859C151.332 32.1143 151.801 32.4426 152.261 32.7798C151.907 33.8803 151.518 34.9807 151.129 36.0811C150.506 35.6798 149.88 35.2759 149.253 34.871C147.494 33.7358 145.722 32.5915 143.949 31.4664Z" fill="#181818"/>
<path d="M102.886 25.1123H107.803C107.449 26.1418 107.131 27.1712 106.812 28.2006H102.32C102.179 28.2006 102.144 28.2361 102.108 28.3781C101.967 28.8912 101.826 29.4131 101.685 29.9351L101.684 29.94C101.542 30.4636 101.401 30.9872 101.259 31.5019C101.118 32.0165 100.985 32.5223 100.853 33.028L100.852 33.0298C100.72 33.5352 100.587 34.0405 100.446 34.5547C100.322 34.9804 100.207 35.4149 100.093 35.8495L100.092 35.8513C99.9772 36.2858 99.8623 36.7204 99.7386 37.1461C99.715 37.2407 99.6875 37.3354 99.66 37.43C99.605 37.6194 99.55 37.8087 99.5264 37.998C99.491 38.1045 99.4557 38.14 99.3496 38.14H92.4174C92.8418 36.4894 93.275 34.8387 93.7083 33.1881C94.1416 31.5374 94.5748 29.8868 94.9992 28.2361H89.8708C90.0123 27.7214 90.1449 27.2067 90.2776 26.692C90.4102 26.1773 90.5428 25.6625 90.6843 25.1478H95.4944C95.6359 25.1478 95.7066 25.1123 95.742 24.9703C95.9667 24.0117 96.2138 23.0532 96.4654 22.0768L96.4687 22.064C96.5328 21.8153 96.5972 21.5654 96.6616 21.3141H103.735C103.452 22.5565 103.169 23.8344 102.886 25.1123Z" fill="#181818"/>
<path d="M131.358 21.2431C131.287 21.6513 131.208 22.0506 131.128 22.45L131.128 22.4517C131.048 22.8505 130.969 23.2493 130.898 23.6569L130.872 23.8173C130.809 24.1971 130.743 24.5973 130.651 24.9703C130.651 25.0413 130.58 25.1123 130.509 25.1478C129.979 25.3963 129.448 25.6448 128.917 25.8578C128.705 25.9465 128.484 26.0441 128.263 26.1417C128.042 26.2393 127.821 26.3371 127.609 26.4257C127.379 26.5322 127.14 26.6387 126.901 26.7452C126.663 26.8517 126.424 26.9582 126.194 27.0647C126.123 27.1002 126.088 27.1357 126.053 27.2067L125.628 28.8041C125.451 29.514 125.239 30.224 125.027 30.934C124.921 31.3422 124.806 31.7505 124.691 32.1588C124.576 32.5669 124.461 32.9751 124.355 33.3833C124.267 33.738 124.169 34.0927 124.072 34.4474C123.975 34.8023 123.878 35.1582 123.789 35.5132C123.683 35.9213 123.568 36.3384 123.453 36.7554C123.338 37.1726 123.223 37.5897 123.117 37.998C123.082 38.1045 123.046 38.14 122.94 38.14H115.973C116.256 36.9148 116.539 35.6984 116.822 34.4821C117.105 33.2668 117.388 32.0516 117.67 30.8275C116.15 31.4664 114.664 32.1053 113.179 32.7442C113.25 32.4957 113.285 32.2829 113.32 32.0699C113.462 31.4842 113.603 30.9073 113.744 30.3305C113.886 29.7537 114.027 29.1768 114.169 28.5911C114.204 28.4491 114.275 28.3781 114.381 28.3426L116.397 27.4907C117.034 27.2422 117.635 26.9937 118.272 26.7097L120.288 25.8578C120.571 25.7335 120.854 25.6182 121.137 25.5028C121.419 25.3874 121.702 25.2721 121.985 25.1478C122.14 25.0825 122.292 25.0172 122.444 24.9524C122.952 24.7352 123.449 24.5227 123.966 24.3314C124.249 24.2071 124.532 24.0918 124.815 23.9764C125.098 23.861 125.381 23.7457 125.664 23.6214C126 23.4794 126.327 23.3374 126.654 23.1954C126.981 23.0535 127.308 22.9115 127.644 22.7695C127.909 22.663 128.183 22.5477 128.457 22.4324L128.459 22.4318C128.732 22.3166 129.006 22.2014 129.271 22.095C129.625 21.953 129.97 21.811 130.315 21.669C130.659 21.5271 131.004 21.3851 131.358 21.2431Z" fill="#181818"/>
<path d="M174.26 37.5365C173.34 36.5071 172.456 35.5132 171.536 34.4482V37.9625H168V34.3062C167.198 35.0162 166.428 35.7262 165.657 36.4362C165.272 36.7911 164.887 37.1461 164.498 37.501C164.498 37.4833 164.489 37.4655 164.48 37.4478C164.472 37.4301 164.463 37.4123 164.463 37.3946V33.6318C164.463 33.5608 164.498 33.4898 164.533 33.4543C164.745 33.224 164.966 32.9936 165.187 32.7633L165.188 32.7621C165.409 32.5314 165.63 32.3006 165.842 32.0699C166.019 31.8747 166.196 31.6884 166.372 31.5021C166.549 31.3157 166.726 31.1292 166.903 30.934C167.062 30.7565 167.23 30.5791 167.398 30.4016C167.566 30.2241 167.734 30.0466 167.893 29.869C167.929 29.8335 167.964 29.7625 167.964 29.6915V29.3366H164.463V26.9582H167.964V24.8993C167.752 25.0413 167.549 25.1833 167.345 25.3252C167.142 25.4672 166.939 25.6093 166.726 25.7513C166.514 25.911 166.293 26.0619 166.072 26.2128C165.851 26.3636 165.63 26.5145 165.418 26.6742C165.382 26.7097 165.312 26.7097 165.276 26.7097H164.463V23.9054C164.463 23.7989 164.498 23.7279 164.569 23.6569L167.221 21.8465C167.398 21.7045 167.61 21.5625 167.787 21.4561C167.893 21.3851 168.035 21.3496 168.176 21.3496H171.572V23.3374H174.189V25.7158H171.713C171.572 25.7158 171.536 25.7513 171.536 25.8933V26.7807C171.536 26.9227 171.572 26.9582 171.713 26.9582H174.437V29.2301H171.572C171.73 29.4284 171.866 29.6157 171.998 29.7981L171.999 29.7989C172.103 29.9426 172.205 30.0834 172.314 30.224C172.562 30.5435 172.801 30.863 173.039 31.1824C173.278 31.5019 173.517 31.8214 173.765 32.1409L174.189 32.6734C174.224 32.7443 174.26 32.8153 174.26 32.8863V37.5365Z" fill="#181818"/>
<path d="M196.365 26.2483H192.262C193.046 28.5866 193.817 30.9249 194.59 33.2709L194.592 33.2748C195.109 34.845 195.628 36.4187 196.153 37.998H191.767C191.661 37.998 191.59 37.998 191.555 37.856C191.307 37.0754 191.025 36.2948 190.742 35.5142L190.741 35.5132C190.527 34.8665 190.299 34.2199 190.074 33.5812C189.928 33.1681 189.784 32.7582 189.645 32.3539C189.468 31.8215 189.282 31.2892 189.097 30.7568L189.096 30.7541C188.911 30.2224 188.725 29.6907 188.549 29.1591C188.389 28.6979 188.23 28.2456 188.071 27.7933C187.912 27.3406 187.753 26.8872 187.594 26.4257C187.558 26.2838 187.487 26.2838 187.346 26.2838H179.176V23.5149H186.709C186.586 23.1422 186.471 22.7783 186.356 22.4145C186.241 22.0506 186.126 21.6868 186.002 21.3141H190.14C190.282 21.3141 190.352 21.3496 190.388 21.4561L191.024 22.8405L191.343 23.4794H191.802C191.838 23.4794 191.909 23.4439 191.944 23.4084C192.103 23.1254 192.261 22.8335 192.42 22.5415L192.421 22.5387C192.581 22.2459 192.74 21.953 192.899 21.669C192.924 21.5943 192.966 21.5371 193.013 21.4728C193.033 21.4454 193.055 21.4168 193.076 21.3851C193.111 21.3496 193.146 21.3141 193.182 21.3141H195.693L195.728 21.3496C195.498 21.8127 195.252 22.2758 195.001 22.7488L194.998 22.7533C194.865 23.0039 194.731 23.2573 194.597 23.5149H196.436C196.365 24.4024 196.365 25.3253 196.365 26.2483Z" fill="#181818"/>
<path fill-rule="evenodd" clip-rule="evenodd" d="M204.146 32.5314H200.68V30.011H218.152V32.5314H215.322C216.03 34.3772 216.702 36.1521 217.374 37.998H201.67C202.484 36.1521 203.297 34.3772 204.146 32.5314ZM211.29 35.3712V35.3002C211.114 34.8565 210.937 34.404 210.76 33.9514C210.583 33.4989 210.406 33.046 210.229 32.6024C210.194 32.5669 210.123 32.4959 210.088 32.4959H209.38C209.274 32.4959 209.204 32.5314 209.204 32.6379C209.062 33.0105 208.93 33.3831 208.797 33.7558C208.664 34.1286 208.532 34.5014 208.39 34.8742C208.36 34.9508 208.336 35.0274 208.313 35.1012C208.282 35.1982 208.253 35.2905 208.213 35.3712H211.29Z" fill="#181818"/>
<path d="M229.859 21.2786V23.5149H233.219C233.152 23.6041 233.099 23.6932 233.052 23.7736C233.024 23.8212 232.997 23.8658 232.971 23.9054C232.511 24.5444 232.052 25.1833 231.627 25.7868C231.344 26.1773 231.07 26.5589 230.796 26.9405C230.522 27.3221 230.248 27.7037 229.965 28.0941C229.894 28.1651 229.894 28.2361 229.965 28.3071L230.814 29.0526C230.914 29.1403 231.014 29.2237 231.112 29.3057C231.292 29.4559 231.467 29.6019 231.627 29.7625C231.733 29.869 231.839 29.9755 231.981 30.0465C232.087 30.1175 232.122 30.1885 232.122 30.3305V34.0223C231.734 33.7208 231.363 33.4282 230.992 33.1356L230.989 33.1337C230.618 32.8412 230.247 32.5487 229.859 32.2474V37.9625H226.676V32.0344L223.422 35.3002C223.422 35.3002 223.386 35.3002 223.386 35.2647V29.7625C223.386 29.585 223.422 29.4076 223.563 29.2656C223.705 29.0881 223.846 28.9195 223.988 28.7508C224.129 28.5822 224.271 28.4136 224.412 28.2361C224.766 27.8104 225.12 27.384 225.473 26.9227C225.579 26.8162 225.685 26.6742 225.791 26.5322H223.492V23.4439H226.711V21.2076C227.737 21.2786 228.762 21.2786 229.859 21.2786Z" fill="#181818"/>
<path d="M234.245 21.2785H238.171V25.3962C238.171 25.6447 238.171 25.6447 238.418 25.6447H240.823V28.4136H238.171V35.0161C238.171 35.2291 238.171 35.2291 238.383 35.2291H241V37.998H230.46V35.2291H234.28V28.4136H232.264V25.6447H234.315C234.245 24.1893 234.245 22.7339 234.245 21.2785Z" fill="#181818"/>
<path d="M162.836 37.998H159.83V32.3893C159.83 32.3893 159.794 32.3893 159.794 32.3538C159.429 32.7797 159.063 33.2017 158.698 33.6236C157.967 34.4677 157.236 35.3119 156.505 36.1876V31.3599C156.505 31.1469 156.54 31.0049 156.682 30.8274C156.947 30.4902 157.212 30.1618 157.478 29.8334L157.479 29.8313C157.744 29.5037 158.009 29.176 158.273 28.8395C158.769 28.2006 159.264 27.5616 159.794 26.8872H156.682V24.2603H159.653C159.794 24.2603 159.865 24.2248 159.865 24.0473V21.2785H162.907V24.0473C162.907 24.1893 162.942 24.2603 163.084 24.2603H164.074V26.8872H162.942C162.974 26.9401 163.002 26.9899 163.029 27.0375C163.093 27.1492 163.151 27.2491 163.225 27.3486C163.543 27.8456 163.862 28.3426 164.145 28.8395C164.18 28.875 164.18 28.946 164.18 28.9815V33.0638C163.935 32.8794 163.702 32.695 163.46 32.5037C163.283 32.3638 163.101 32.2198 162.907 32.0698C162.836 34.0577 162.836 36.0101 162.836 37.998Z" fill="#181818"/>
<path d="M46.6509 32.2828H39.1175C39.5773 30.4546 40.0282 28.6264 40.4792 26.7982C40.9301 24.9701 41.3811 23.142 41.8408 21.314H49.3035C49.0088 22.5328 48.714 23.7476 48.4193 24.9625C47.8299 27.3919 47.2403 29.8218 46.6509 32.2828Z" fill="#181818"/>
<path d="M181.51 34.3417V31.2179H179.176V28.591H187.028C187.039 28.591 187.051 28.5901 187.064 28.5892C187.131 28.5842 187.21 28.5783 187.24 28.6975L188.089 31.1469V31.2179H186.073V33.3832C186.356 33.3359 186.635 33.2886 186.914 33.2412C187.472 33.1466 188.03 33.0519 188.619 32.9573C188.569 33.4828 188.526 34.0002 188.484 34.5134L188.484 34.516C188.438 35.0765 188.392 35.632 188.337 36.1876L188.33 36.1888C185.22 36.7564 182.109 37.3239 178.964 37.8915V34.9096C179.813 34.6967 180.662 34.5192 181.51 34.3417Z" fill="#181818"/>
<path d="M53.8307 37.856H50.3292C51.744 32.3538 53.1587 26.8517 54.6088 21.314H58.181C57.4561 24.0646 56.7312 26.824 56.0062 29.5835L56.0058 29.5852C55.2807 32.3451 54.5557 35.105 53.8307 37.856Z" fill="#181818"/>
<path d="M200.609 27.9876V25.0058C200.875 24.8993 201.131 24.7839 201.387 24.6685C201.644 24.5532 201.9 24.4378 202.166 24.3313L203.651 23.6924C204.394 23.3729 205.137 23.0534 205.915 22.7339C206.48 22.4854 207.046 22.2369 207.577 21.9885C208.072 21.7755 208.567 21.5625 209.027 21.3495C209.204 21.2785 209.31 21.314 209.451 21.385C209.724 21.4977 209.995 21.6103 210.265 21.7226C211.185 22.1055 212.094 22.4836 213.024 22.8404C213.554 23.0534 214.085 23.2753 214.615 23.4971C215.146 23.719 215.676 23.9408 216.207 24.1538C216.542 24.2956 216.869 24.4286 217.196 24.5616L217.197 24.562C217.524 24.6952 217.851 24.8283 218.187 24.9703C218.223 24.9703 218.294 25.0413 218.294 25.0768V27.9876C218.011 27.8811 217.763 27.7746 217.515 27.6681C217.038 27.4729 216.552 27.2865 216.065 27.1001C215.579 26.9138 215.093 26.7274 214.615 26.5322L212.175 25.5737C211.804 25.4248 211.433 25.2821 211.065 25.1405C210.555 24.9445 210.05 24.7503 209.558 24.5443C209.275 24.4378 209.062 24.4733 208.779 24.5798C208.178 24.8638 207.542 25.1123 206.905 25.3607C206.534 25.5205 206.171 25.6714 205.809 25.8222C205.446 25.9731 205.083 26.1239 204.712 26.2837C204.412 26.4079 204.102 26.5321 203.793 26.6563C203.483 26.7806 203.174 26.9049 202.873 27.0291C202.555 27.1711 202.228 27.3042 201.9 27.4373C201.573 27.5705 201.246 27.7036 200.928 27.8456C200.912 27.8536 200.894 27.8633 200.875 27.8741C200.807 27.9112 200.719 27.9601 200.609 27.9876Z" fill="#181818"/>
</svg>
